<svg width="27" height="28" viewBox="0 0 27 28" fill="none" xmlns="http://www.w3.org/2000/svg">
<path d="M0.290039 0.0131579L6.12646 2.02436C8.61089 2.87879 10.5038 3.87781 11.792 5.02144C13.0802 6.16506 13.7243 7.62415 13.7243 9.39873C13.7243 10.4635 13.4746 11.2785 12.975 11.8437C12.4755 12.409 11.7657 12.6061 10.8324 12.4484V12.5799C11.4502 12.9348 12.0155 13.3554 12.5281 13.8286C13.0408 14.315 13.4483 14.9065 13.7506 15.6032C14.0529 16.2999 14.1975 17.1412 14.1975 18.1271C14.1975 19.8228 13.5797 20.9533 12.3441 21.4791C11.1084 22.018 9.42587 21.926 7.30951 21.1899L0.290039 18.7712V0V0.0131579ZM4.25984 8.82035L6.57339 9.62222C7.73016 10.0166 8.53199 10.1217 8.97893 9.91141C9.42586 9.70109 9.64934 9.24099 9.64934 8.53115C9.64934 7.82132 9.38643 7.20352 8.86063 6.70401C8.33482 6.20449 7.50669 5.75755 6.36307 5.37634L4.25984 4.65337V8.8335V8.82035ZM4.25984 11.9752V16.8651L6.86259 17.759C8.05879 18.1665 8.88692 18.2191 9.36014 17.9168C9.83337 17.6144 10.07 17.0755 10.07 16.3131C10.07 15.6164 9.83336 14.9591 9.34699 14.3676C8.86062 13.776 7.99306 13.2503 6.73113 12.8165L4.25984 11.962V11.9752Z" fill="#494949"/>
<path d="M26.4493 27.7887L22.4795 26.4216V15.5637C22.4795 15.1299 22.4795 14.5384 22.5058 13.8023C22.5189 13.0662 22.5452 12.422 22.5847 11.87C22.4927 11.9488 22.3086 12.0671 22.0194 12.238C21.7302 12.4089 21.4673 12.5535 21.2176 12.6849L19.0618 13.684L17.1426 10.6343L23.1893 7.90015L26.4493 9.01749V27.7887Z" fill="#494949"/>
</svg>
